<?xml version="1.0" standalone="no"?>
<!DOCTYPE svg PUBLIC "-//W3C//DTD SVG 20010904//EN"
 "http://www.w3.org/TR/2001/REC-SVG-20010904/DTD/svg10.dtd">
<svg version="1.0" xmlns="http://www.w3.org/2000/svg"
 width="595.000000pt" height="595.000000pt" viewBox="0 0 595.000000 595.000000"
 preserveAspectRatio="xMidYMid meet">
<metadata>
Created by potrace 1.11, written by Peter Selinger 2001-2013
</metadata>
<g transform="translate(0.000000,595.000000) scale(0.100000,-0.100000)"
fill="#000000" stroke="none">
<path d="M473 5935 c-165 -36 -327 -163 -402 -316 -77 -156 -72 54 -69 -2677
l3 -2447 23 -65 c37 -102 80 -169 158 -247 82 -81 196 -144 299 -163 43 -8
743 -10 2525 -8 l2465 3 80 32 c188 77 335 245 374 431 8 38 11 732 11 2505 0
2705 5 2497 -63 2636 -42 86 -167 214 -254 259 -34 18 -96 41 -139 52 -76 20
-119 20 -2513 19 -2005 0 -2447 -3 -2498 -14z m1815 -540 c165 -32 299 -87
429 -177 71 -49 163 -138 163 -157 0 -6 -105 -102 -232 -215 l-233 -204 -51
48 c-103 97 -213 134 -399 135 -111 0 -141 -4 -204 -24 -188 -62 -301 -227
-246 -358 34 -82 85 -108 323 -169 235 -60 319 -88 427 -140 281 -138 398
-359 382 -724 -9 -197 -52 -337 -148 -480 -148 -222 -394 -362 -749 -427 -118
-22 -501 -24 -625 -5 -194 32 -345 87 -480 176 -90 61 -229 188 -223 205 1 6
111 105 243 220 l239 209 58 -53 c112 -104 277 -163 483 -172 141 -6 236 10
332 57 68 34 142 100 168 150 37 71 29 177 -17 242 -34 49 -99 76 -328 137
-325 87 -446 142 -575 262 -160 150 -223 335 -196 579 32 299 157 520 386 682
170 121 369 189 645 222 75 9 348 -3 428 -19z m2232 10 c384 -58 640 -303 714
-682 8 -43 18 -113 21 -155 l7 -78 -340 0 -339 0 -7 51 c-17 125 -78 220 -166
258 -71 30 -194 31 -275 0 -118 -44 -214 -153 -275 -311 -57 -149 -155 -567
-197 -838 -9 -63 -17 -171 -17 -240 0 -147 14 -190 86 -256 66 -61 118 -77
230 -72 79 3 103 9 158 36 151 72 256 229 304 455 l6 27 -205 0 c-157 0 -205
3 -205 13 0 6 23 129 50 272 27 143 50 263 50 268 0 4 245 7 545 7 l545 0 -5
-22 c-3 -13 -25 -131 -51 -263 -53 -280 -80 -393 -130 -536 -117 -339 -342
-612 -614 -745 -77 -38 -201 -78 -297 -96 -88 -17 -379 -16 -458 1 -287 61
-492 209 -605 435 -124 252 -119 519 24 1196 106 500 175 677 349 886 83 101
190 192 291 249 230 129 535 182 806 140z m-540 -3548 c0 -1 -22 -112 -50
-245 -27 -133 -50 -245 -50 -248 0 -2 64 -3 143 -2 l142 3 50 245 50 245 201
3 201 2 -123 -617 c-68 -340 -126 -628 -129 -640 -5 -23 -6 -23 -206 -23
l-201 0 6 27 c40 189 92 464 88 468 -3 3 -65 5 -139 5 -117 0 -134 -2 -140
-17 -4 -10 -28 -121 -53 -248 l-46 -230 -201 -3 -200 -2 93 467 c52 257 94
473 94 480 0 10 -38 13 -165 13 -91 0 -165 -1 -165 -3 0 -1 -43 -216 -95 -477
-52 -261 -95 -476 -95 -477 0 -2 -90 -3 -200 -3 -114 0 -200 4 -200 9 0 5 43
219 95 476 52 257 95 469 95 471 0 2 -204 4 -454 4 l-454 0 -11 -50 c-6 -27
-14 -68 -17 -90 l-7 -40 287 0 c157 0 286 -3 286 -7 -1 -5 -13 -66 -29 -138
l-27 -130 -287 -3 -287 -2 -5 -23 c-19 -83 -25 -115 -25 -134 l0 -23 286 0
c225 0 285 -3 282 -12 -3 -7 -18 -79 -34 -160 l-28 -148 -489 0 c-461 0 -489
1 -485 18 2 9 60 297 129 640 l124 622 1222 0 c673 0 1223 -1 1223 -3z"/>
</g>
</svg>
