<svg width="1440" height="80" viewBox="0 0 1440 80" fill="none" xmlns="http://www.w3.org/2000/svg">
<path d="M0 0H1440V39.5C1440 39.5 1357.85 20 1190.17 20C1022.5 20 547.976 82.5 377.238 79C206.5 75.5 0 20 0 20V0Z" fill="#A8322D"/>
<path fill-rule="evenodd" clip-rule="evenodd" d="M408.061 79H377.238C276.868 76.9425 164.14 56.9149 88.2686 40.7561C150.371 27.0873 229.8 15 316.5 15C449.087 15.0001 584.987 43.2682 661.234 62.2306C562.722 70.9985 471.927 77.936 408.061 79Z" fill="white" fill-opacity="0.22"/>
<path fill-rule="evenodd" clip-rule="evenodd" d="M408.061 79H377.238C363.408 78.7165 349.344 78.0918 335.173 77.1831C361.635 65.9101 510.77 5.99991 691.5 6C779.652 6.00004 869.269 20.253 941.844 36.163C899.56 39.9709 855.298 44.1549 810.691 48.3716C659.087 62.7026 503.503 77.4099 408.061 79Z" fill="white" fill-opacity="0.15"/>
</svg>
